<svg id="Layer_1" data-name="Layer 1" xmlns="http://www.w3.org/2000/svg" viewBox="0 0 371.53 682.59"><defs><style>.cls-1,.cls-2{fill:#231f20;stroke:#231f20;stroke-miterlimit:10;}.cls-2{fill-rule:evenodd;}</style></defs><title>sage</title><path class="cls-1" d="M83.65,239.9q-2.41,2.41-10.29,2.41H55q-7.88,0-10.51-2.41t-2.63-10.29V195.46H2v40.28q0,38.54,40.72,38.53H85.18q41.15,0,41.16-38.53V156.93q0-38.52-40.28-38.53h-32q-7.88,0-10.51-2.41T41,105.7V44.83Q41,37,43.59,34.55t10.51-2.41H72.48q7.88,0,10.51,2.41t2.63,10.29V79h39.84V38.7q0-38.52-40.72-38.53H41.83Q1.11,0.17,1.11,38.7V111q0,39,39.85,39h32.4q7.88,0,10.29,2.41t2.41,10.29v67Q86.06,237.49,83.65,239.9Z" transform="translate(-0.18 0.33)"/><path class="cls-1" d="M290.1,34.33l25,144.49H267.33Zm81,239.95L319,0.17H261.64L213,274.27h39.41l10.07-63.49h57.8l10.95,63.49H371.1Z" transform="translate(-0.18 0.33)"/><path class="cls-1" d="M129,367.1q0-38.52-40.72-38.53H41.4Q0.68,328.57.68,367.1v197q0,39,40.72,39H88.25q40.72,0,40.72-39V461.67H67.23v30.65H89.12v67q0,7.88-2.63,10.29T76,572H53.66q-7.88,0-10.51-2.41t-2.63-10.29v-187q0-7.88,2.63-10.29t10.51-2.41H76q7.88,0,10.51,2.41t2.63,10.29v36.34H129V367.1Z" transform="translate(-0.18 0.33)"/><path class="cls-1" d="M274.77,477h63.05V445H274.77V360.53H351v-32h-116v274.1H354v-32H274.77V477Z" transform="translate(-0.18 0.33)"/><path class="cls-2" d="M3.08,646.73H353.37v35H3.08v-35Z" transform="translate(-0.18 0.33)"/></svg>